<?xml version="1.0" encoding="UTF-8" standalone="no"?> <svg width="24" height="24" viewBox="0 0 24 24" fill="none" xmlns="http://www.w3.org/2000/svg">
<path d="M9.86309 17.9999C9.72651 18 9.59136 17.9721 9.46598 17.9179C9.3406 17.8637 9.22765 17.7844 9.13409 17.6849L4.27109 12.5059C4.09798 12.3113 4.00765 12.0568 4.01931 11.7966C4.03098 11.5364 4.14372 11.291 4.33356 11.1126C4.52339 10.9342 4.77533 10.837 5.03577 10.8415C5.29621 10.8461 5.5446 10.9521 5.72809 11.1369L9.85309 15.5279L18.2611 6.32794C18.3488 6.22815 18.4556 6.14685 18.5751 6.08879C18.6946 6.03073 18.8245 5.99707 18.9572 5.98979C19.0899 5.9825 19.2227 6.00173 19.3478 6.04634C19.473 6.09096 19.588 6.16008 19.6862 6.24966C19.7843 6.33923 19.8636 6.44747 19.9195 6.56804C19.9753 6.68862 20.0066 6.81911 20.0114 6.9519C20.0162 7.08469 19.9945 7.21711 19.9476 7.34143C19.9007 7.46574 19.8295 7.57946 19.7381 7.67594L10.6011 17.6759C10.5081 17.7773 10.3952 17.8584 10.2694 17.9142C10.1436 17.9699 10.0077 17.9991 9.87009 17.9999H9.86309Z" fill="black"/>
</svg>
